<svg width="17" height="28" viewBox="0 0 17 28" fill="none" xmlns="http://www.w3.org/2000/svg">
<path d="M17.0007 18.9998C17.0007 21.3109 16.1895 23.2776 14.5673 24.8998C12.9451 26.5221 10.9784 27.3332 8.66732 27.3332C6.35621 27.3332 4.38954 26.5221 2.76732 24.8998C1.1451 23.2776 0.333984 21.3109 0.333984 18.9998V6.6665C0.333984 4.99984 0.917318 3.58317 2.08398 2.4165C3.25065 1.24984 4.66732 0.666504 6.33398 0.666504C8.00065 0.666504 9.41732 1.24984 10.584 2.4165C11.7507 3.58317 12.334 4.99984 12.334 6.6665V18.3332C12.334 19.3554 11.9784 20.2221 11.2673 20.9332C10.5562 21.6443 9.68954 21.9998 8.66732 21.9998C7.64509 21.9998 6.77843 21.6443 6.06732 20.9332C5.35621 20.2221 5.00065 19.3554 5.00065 18.3332V5.99984H7.66732V18.3332C7.66732 18.6221 7.76176 18.8609 7.95065 19.0498C8.13954 19.2387 8.37843 19.3332 8.66732 19.3332C8.95621 19.3332 9.1951 19.2387 9.38398 19.0498C9.57287 18.8609 9.66732 18.6221 9.66732 18.3332V6.6665C9.64509 5.73317 9.31732 4.94428 8.68398 4.29984C8.05065 3.65539 7.26732 3.33317 6.33398 3.33317C5.40065 3.33317 4.61176 3.65539 3.96732 4.29984C3.32287 4.94428 3.00065 5.73317 3.00065 6.6665V18.9998C2.97843 20.5776 3.52287 21.9165 4.63398 23.0165C5.7451 24.1165 7.08954 24.6665 8.66732 24.6665C10.2229 24.6665 11.5451 24.1165 12.634 23.0165C13.7229 21.9165 14.2895 20.5776 14.334 18.9998V5.99984H17.0007V18.9998Z" fill="white"/>
</svg>
