<svg width="65" height="66" viewBox="0 0 65 66" fill="none" xmlns="http://www.w3.org/2000/svg">
<mask id="mask0_124_679" style="mask-type:alpha" maskUnits="userSpaceOnUse" x="0" y="0" width="65" height="66">
<rect y="0.327637" width="65" height="65" fill="#D9D9D9"/>
</mask>
<g mask="url(#mask0_124_679)">
<path d="M3 72.7052V58.9535C3 57.0428 3.93182 56.0147 5 54.7222C6.06818 53.4297 6.5 52.6065 8 52.6065H17C17.9091 52.6065 19.1818 53.1024 20 53.6644C20.8182 54.2263 21.5 54.8247 22 55.78C23.3182 57.9717 25.0682 59.8328 27 61.0691C28.9318 62.3054 30.8182 62.1269 33 62.1269C35.2273 62.1269 37.0682 62.3054 39 61.0691C40.9318 59.8328 42.7273 57.9717 44 55.78C44.5909 54.8247 45.2045 54.2263 46 53.6644C46.7955 53.1024 48.1364 52.6065 49 52.6065H58C59.5455 52.6065 59.9545 53.4297 61 54.7222C62.0455 56.0147 63 57.0428 63 58.9535V72.7052H44V65.3004C42.4091 66.7053 40.8409 67.7433 39 68.4739C37.1591 69.2044 35 69.5317 33 69.5317C31.0455 69.5317 28.8636 69.2325 27 68.4739C25.1364 67.7152 23.5909 66.7053 22 65.3004V72.7052H3ZM33 58.9535C31.2727 58.9535 29.5455 58.8791 28 57.8956C26.4545 56.9122 25.0455 55.4065 24 53.6644C23.2273 52.2594 22.1591 51.3057 21 50.4909C19.8409 49.676 19.3636 49.4331 18 49.4331C19 47.3538 20.7727 45.3522 24 44.144C27.2273 42.9357 30.1364 42.0283 33 42.0283C35.8636 42.0283 38.7727 42.9357 42 44.144C45.2273 45.3522 47 47.3538 48 49.4331C46.6818 49.4331 46.1818 49.676 45 50.4909C43.8182 51.3057 42.7727 52.2594 42 53.6644C41 55.4627 39.5455 56.9403 38 57.8956C36.4545 58.851 34.7727 58.9535 33 58.9535ZM11 49.4331C8.72727 49.4331 6.59091 48.2265 5 46.2596C3.40909 44.2927 3 41.6647 3 38.8548C3 35.9888 3.40909 33.3889 5 31.4501C6.59091 29.5113 8.72727 29.3344 11 29.3344C13.3182 29.3344 15.4318 29.5113 17 31.4501C18.5682 33.3889 19 35.9888 19 38.8548C19 41.6647 18.5682 44.2927 17 46.2596C15.4318 48.2265 13.3182 49.4331 11 49.4331ZM55 49.4331C52.7273 49.4331 50.5909 48.2265 49 46.2596C47.4091 44.2927 47 41.6647 47 38.8548C47 35.9888 47.4091 33.3889 49 31.4501C50.5909 29.5113 52.7273 29.3344 55 29.3344C57.3182 29.3344 59.4318 29.5113 61 31.4501C62.5682 33.3889 63 35.9888 63 38.8548C63 41.6647 62.5682 44.2927 61 46.2596C59.4318 48.2265 57.3182 49.4331 55 49.4331ZM33 38.8548C30.7273 38.8548 28.5909 37.6483 27 35.6814C25.4091 33.7145 25 32.1443 25 29.3344C25 26.4684 25.4091 23.8685 27 21.9297C28.5909 19.9909 30.7273 18.7562 33 18.7562C35.3182 18.7562 37.4318 19.9909 39 21.9297C40.5682 23.8685 41 26.4684 41 29.3344C41 32.1443 40.5682 33.7145 39 35.6814C37.4318 37.6483 35.3182 38.8548 33 38.8548Z" fill="#FFCC33"/>
</g>
</svg>
