<svg width="65" height="66" viewBox="0 0 65 66" fill="none" xmlns="http://www.w3.org/2000/svg">
<mask id="mask0_123_636" style="mask-type:alpha" maskUnits="userSpaceOnUse" x="0" y="0" width="65" height="66">
<rect y="0.984863" width="65" height="65" fill="#D9D9D9"/>
</mask>
<g mask="url(#mask0_123_636)">
<path d="M33 29.9338C36.6281 29.9338 40.0583 29.6905 44 28.876C47.9417 28.0615 51.1781 27.0354 54 25.7026V55.3216C51.3125 56.6544 47.8521 57.6805 44 58.495C40.1479 59.3096 36.9417 59.5529 33 59.5529C29.0583 59.5529 24.8521 59.3096 21 58.495C17.1479 57.6805 13.6875 56.6544 11 55.3216V25.7026C13.8219 27.0354 17.0583 28.0615 21 28.876C24.9417 29.6905 29.3719 29.9338 33 29.9338ZM49 51.0903V33.1073C46.7604 33.7984 43.9339 34.828 41 35.223C38.0661 35.6179 35.6427 36.2808 33 36.2808C30.3573 36.2808 26.9339 35.6179 24 35.223C21.0661 34.828 18.2396 33.7984 16 33.1073V51.0903C18.2396 51.9789 21.0885 52.6629 24 53.2059C26.9115 53.7489 30.3125 53.2059 33 53.2059C35.6875 53.2059 38.0885 53.7489 41 53.2059C43.9115 52.6629 46.7604 51.9789 49 51.0903ZM33 0.314819C35.9562 0.314819 37.8948 1.16813 40 3.48829C42.1052 5.80844 43 8.69277 43 11.9509C43 15.209 42.1052 18.0933 40 20.4134C37.8948 22.7336 35.9562 23.5869 33 23.5869C30.0438 23.5869 27.1052 22.7336 25 20.4134C22.8948 18.0933 22 15.209 22 11.9509C22 8.69277 22.8948 5.80844 25 3.48829C27.1052 1.16813 30.0438 0.314819 33 0.314819ZM33 18.2978C34.4781 18.2978 34.9474 17.3422 36 16.1822C37.0526 15.0221 38 13.5799 38 11.9509C38 10.3218 37.0526 8.87965 36 7.71957C34.9474 6.5595 34.4781 6.66175 33 6.66175C31.5219 6.66175 30.0526 6.5595 29 7.71957C27.9474 8.87965 27 10.3218 27 11.9509C27 13.5799 27.9474 15.0221 29 16.1822C30.0526 17.3422 31.5219 18.2978 33 18.2978Z" fill="#FFCC33"/>
</g>
</svg>
