<svg width="194" height="193" viewBox="0 0 194 193" fill="none" xmlns="http://www.w3.org/2000/svg">
<g clip-path="url(#clip0_122_563)">
<path d="M97.0006 16.0833C141.415 16.0833 177.417 52.0858 177.417 96.4999C177.417 140.914 141.415 176.917 97.0006 176.917C52.5865 176.917 16.584 140.914 16.584 96.4999C16.584 52.0858 52.5865 16.0833 97.0006 16.0833ZM110.535 128.264C101.52 128.799 92.4814 128.799 83.4665 128.264C84.5602 134.585 85.9514 140.279 87.5678 145.136C89.5943 151.215 91.8298 155.558 93.9207 158.212C94.6283 159.096 95.714 160.833 97.0167 160.833C98.1828 160.729 99.4453 159.008 100.073 158.212C102.163 155.558 104.407 151.215 106.425 145.136C108.214 139.623 109.593 133.983 110.535 128.264ZM157.418 118.655C155.287 119.571 153.043 120.416 150.719 121.188C143.867 123.472 135.858 125.305 127.076 126.576C125.976 134.599 124.174 142.51 121.689 150.218C120.917 152.55 120.072 154.786 119.155 156.917C127.923 153.69 135.885 148.597 142.492 141.991C149.098 135.385 154.191 127.422 157.418 118.655ZM36.5836 118.655C39.8106 127.422 44.9034 135.385 51.5097 141.991C58.1159 148.597 66.0782 153.69 74.8459 156.917C73.9077 154.721 73.0626 152.486 72.3127 150.218C69.8277 142.51 68.0248 134.599 66.9248 126.576C58.9014 125.476 50.9901 123.673 43.2823 121.188C40.9502 120.416 38.7146 119.571 36.5836 118.655ZM81.4963 80.9956C80.7146 91.317 80.7146 101.683 81.4963 112.004C91.8057 112.784 102.196 112.784 112.505 112.004C113.286 101.683 113.286 91.317 112.505 80.9956C102.184 80.2138 91.8177 80.2138 81.4963 80.9956ZM128.765 82.9658C129.299 91.9806 129.299 101.019 128.765 110.034C134.484 109.09 140.123 107.719 145.637 105.933C151.716 103.906 156.059 101.671 158.712 99.5799C159.597 98.8802 161.334 97.7785 161.334 96.4838C161.229 95.3178 159.509 94.0552 158.712 93.428C156.059 91.3372 151.716 89.0935 145.637 87.0751C140.123 85.2888 134.484 83.9099 128.765 82.9658ZM65.2361 82.9658C58.9153 84.0595 53.2299 85.4507 48.3646 87.067C42.2852 89.0935 37.9507 91.3291 35.2889 93.42C33.3589 94.9479 32.7799 96.0978 32.6914 96.3793C32.3296 97.5855 34.541 98.9767 35.2889 99.5718C37.9427 101.663 42.2852 103.906 48.3646 105.925C53.2299 107.549 58.9153 108.94 65.2361 110.026C64.7018 101.017 64.7018 91.9753 65.2361 82.9658ZM74.8459 36.0829C66.0784 39.3104 58.1165 44.4033 51.5102 51.0095C44.904 57.6157 39.8111 65.5777 36.5836 74.3451C38.7146 73.4284 40.9583 72.584 43.2823 71.812C50.9901 69.327 58.9014 67.5241 66.9248 66.4241C68.1954 57.6426 70.0289 49.6331 72.3127 42.7816C73.0847 40.4495 73.9291 38.2139 74.8459 36.0829ZM119.155 36.0829C120.072 38.2139 120.917 40.4575 121.689 42.7816C123.972 49.6331 125.806 57.6426 127.076 66.4241C135.858 67.6947 143.867 69.5282 150.719 71.812C153.051 72.584 155.287 73.4284 157.418 74.3451C154.191 65.5774 149.098 57.6152 142.492 51.0089C135.885 44.4026 127.923 39.3099 119.155 36.0829ZM97.0006 32.1666C95.8829 32.1666 94.4916 34.0725 93.9287 34.7882C91.8379 37.4419 89.5943 41.7844 87.5758 47.8639C85.7895 53.3775 84.4186 59.017 83.4746 64.7353C92.484 64.2011 101.517 64.2011 110.527 64.7353C109.583 59.017 108.212 53.3775 106.425 47.8639C104.407 41.7844 102.163 37.45 100.073 34.7882C99.5096 34.0644 98.1265 32.1666 97.0006 32.1666Z" fill="#FFCC33"/>
</g>
<defs>
<clipPath id="clip0_122_563">
<rect width="193" height="193" fill="white" transform="translate(0.5)"/>
</clipPath>
</defs>
</svg>
