<svg width="65" height="66" viewBox="0 0 65 66" fill="none" xmlns="http://www.w3.org/2000/svg">
<mask id="mask0_123_651" style="mask-type:alpha" maskUnits="userSpaceOnUse" x="0" y="0" width="65" height="66">
<rect y="0.984863" width="65" height="65" fill="#D9D9D9"/>
</mask>
<g mask="url(#mask0_123_651)">
<path d="M10 57.4372C8.515 57.4372 8.0575 56.4991 7 55.3216C5.9425 54.1441 5 52.7438 5 51.0903V18.2978C5 16.6443 5.9425 15.244 7 14.0665C8.0575 12.889 8.515 11.9509 10 11.9509H21V6.66175C21 5.00821 21.9425 3.60799 23 2.43046C24.0575 1.25294 25.515 0.314819 27 0.314819H37C38.485 0.314819 39.9425 1.25294 41 2.43046C42.0575 3.60799 43 5.00821 43 6.66175V11.9509H54C55.485 11.9509 55.9425 12.889 57 14.0665C58.0575 15.244 59 16.6443 59 18.2978V51.0903C59 52.7438 58.0575 54.1441 57 55.3216C55.9425 56.4991 55.485 57.4372 54 57.4372H10ZM27 11.9509H37V6.66175H27V11.9509ZM54 39.4542H40V45.8012H24V39.4542H10V51.0903H54V39.4542ZM29 39.4542H35V33.1073H29V39.4542ZM10 33.1073H24V27.8182H40V33.1073H54V18.2978H10V33.1073Z" fill="#FFCC33"/>
</g>
</svg>
