<svg width="99" height="112" viewBox="0 0 99 112" fill="none" xmlns="http://www.w3.org/2000/svg">
<path d="M42.5 0C46.3719 0 49.5 3.12812 49.5 7V31.5H35.5V7C35.5 3.12812 38.6281 0 42.5 0ZM14.5 14C14.5 10.1281 17.6281 7 21.5 7C25.3719 7 28.5 10.1281 28.5 14V31.5H14.5V14ZM56.5 14C56.5 10.1281 59.6281 7 63.5 7C67.3719 7 70.5 10.1281 70.5 14V35C70.5 38.8719 67.3719 42 63.5 42C59.6281 42 56.5 38.8719 56.5 35V14ZM77.5 28C77.5 24.1281 80.6281 21 84.5 21C88.3719 21 91.5 24.1281 91.5 28V42C91.5 45.8719 88.3719 49 84.5 49C80.6281 49 77.5 45.8719 77.5 42V28ZM56.5 47.25V47.1187C58.5563 48.3 60.9406 49 63.5 49C66.3875 49 69.0563 48.125 71.2875 46.6375C73.1906 52.0844 78.3969 56 84.5 56C87.0594 56 89.4437 55.3219 91.5 54.1187V56C91.5 67.4406 86.0094 77.6125 77.5 84V105C77.5 108.872 74.3719 112 70.5 112H35.5C31.6281 112 28.5 108.872 28.5 105V87.85C24.7156 86.1219 21.2375 83.7375 18.2406 80.7406L15.7031 78.2031C10.4531 72.9531 7.5 65.8219 7.5 58.4062V52.5C7.5 44.7781 13.7781 38.5 21.5 38.5H40.75C45.5844 38.5 49.5 42.4156 49.5 47.25C49.5 52.0844 45.5844 56 40.75 56H28.5C26.575 56 25 57.575 25 59.5C25 61.425 26.575 63 28.5 63H40.75C49.4562 63 56.5 55.9562 56.5 47.25Z" fill="#FFCC33"/>
</svg>
