<svg width="128" height="128" viewBox="0 0 128 128" fill="none" xmlns="http://www.w3.org/2000/svg">
<path d="M63.258 12.7467C65.8387 11.027 68.8634 10.0943 71.9644 10.0621C75.0654 10.0299 78.1089 10.8996 80.7247 12.5653L102.879 26.6667H111.999C113.414 26.6667 114.77 27.2286 115.771 28.2288C116.771 29.229 117.333 30.5855 117.333 32V80C117.333 81.4145 116.771 82.7711 115.771 83.7712C114.77 84.7714 113.414 85.3333 111.999 85.3333H103.893C104.064 87.9304 103.514 90.5243 102.305 92.829C101.096 95.1337 99.2736 97.0597 97.0393 98.3947L69.8767 114.693C68.2077 115.694 66.2967 116.219 64.3507 116.211C62.4048 116.204 60.4979 115.664 58.8367 114.651C56.9655 116.304 54.5737 117.248 52.0779 117.32C49.582 117.391 47.1403 116.584 45.178 115.04L17.7647 93.4987C15.8492 91.9945 14.5059 89.8803 13.9578 87.5073C13.4097 85.1343 13.6897 82.6452 14.7514 80.4533C13.4778 79.4548 12.4481 78.1796 11.7403 76.7243C11.0325 75.269 10.6651 73.6717 10.666 72.0533V32C10.666 30.5855 11.2279 29.229 12.2281 28.2288C13.2283 27.2286 14.5849 26.6667 15.9994 26.6667H42.3834L63.258 12.7467ZM22.2553 72.7787L25.946 69.552C29.1001 66.793 33.2106 65.3816 37.3942 65.6209C41.5778 65.8603 45.5005 67.7313 48.3194 70.832L62.73 86.6827C64.9899 89.1684 66.41 92.3024 66.789 95.6403C67.1681 98.9783 66.4869 102.351 64.842 105.28L91.5567 89.2533C92.2554 88.8332 92.7857 88.1826 93.0564 87.4135C93.327 86.6445 93.321 85.8051 93.0393 85.04L69.4287 51.984C68.7821 51.078 67.8683 50.3971 66.8153 50.0365C65.7623 49.676 64.6229 49.6539 63.5567 49.9733L50.298 53.9467C47.5311 54.7766 44.5912 54.8419 41.7901 54.1358C38.9891 53.4297 36.4315 51.9784 34.3887 49.936L32.826 48.3787C31.4071 46.9626 30.4166 45.1748 29.9684 43.2209C29.5203 41.267 29.6327 39.2262 30.2927 37.3333H21.3327V72.0533L22.2553 72.7787ZM75.002 21.568C74.129 21.0118 73.1129 20.7217 72.0778 20.7331C71.0427 20.7444 70.0333 21.0568 69.1727 21.632L40.3727 40.832L41.93 42.3947C42.6117 43.0755 43.465 43.559 44.3993 43.7937C45.3337 44.0285 46.3142 44.0058 47.2367 43.728L60.49 39.7547C63.688 38.7957 67.1059 38.8611 70.2649 39.9419C73.4238 41.0226 76.1656 43.0644 78.106 45.7813L98.746 74.6667H106.666V37.3333H102.885C100.855 37.3331 98.8683 36.754 97.1567 35.664L75.002 21.568ZM32.9647 77.5733L24.346 85.1147L51.7593 106.656L55.5193 100.085C56.078 99.1067 56.3124 97.9763 56.1888 96.8562C56.0652 95.7361 55.59 94.6839 54.8313 93.8507L40.426 78C39.4865 76.967 38.1793 76.3436 36.7852 76.2638C35.3911 76.1841 34.0159 76.6542 32.9647 77.5733Z" fill="#FFCC33"/>
</svg>
