<svg width="193" height="193" viewBox="0 0 193 193" fill="none" xmlns="http://www.w3.org/2000/svg">
<path d="M104.541 24.125C74.2243 24.125 49.7776 47.8479 48.2497 77.6825L32.8097 98.0279C30.8797 100.521 32.8097 104.542 36.1872 104.542H48.2497V128.667C48.2497 137.593 55.4068 144.75 64.333 144.75H72.3747V168.875H128.666V131.16C147.725 122.153 160.833 102.933 160.833 80.4167C160.833 49.3758 135.743 24.125 104.541 24.125ZM112.583 112.583H96.4997V104.542H112.583V112.583ZM125.45 76.3958C123.308 80.0119 120.259 83.0058 116.604 85.0808V96.5H92.4788V85.0808C80.9793 78.4062 76.9584 63.69 83.633 52.2708C90.3076 40.8517 105.104 36.67 116.604 43.2642C128.103 49.8583 132.124 64.7354 125.45 76.3958Z" fill="#FFCC33"/>
</svg>
