<svg width="128" height="96" viewBox="0 0 128 96" fill="none" xmlns="http://www.w3.org/2000/svg">
<path d="M56 96C56 96 48 96 48 88C48 80 56 56 88 56C120 56 128 80 128 88C128 96 120 96 120 96H56ZM88 48C94.3652 48 100.47 45.4714 104.971 40.9706C109.471 36.4697 112 30.3652 112 24C112 17.6348 109.471 11.5303 104.971 7.02944C100.47 2.52856 94.3652 0 88 0C81.6348 0 75.5303 2.52856 71.0294 7.02944C66.5286 11.5303 64 17.6348 64 24C64 30.3652 66.5286 36.4697 71.0294 40.9706C75.5303 45.4714 81.6348 48 88 48ZM41.728 96C40.5426 93.5023 39.9512 90.7643 40 88C40 77.16 45.44 66 55.488 58.24C50.4734 56.6915 45.2478 55.9357 40 56C8 56 0 80 0 88C0 96 8 96 8 96H41.728ZM36 48C41.3043 48 46.3914 45.8929 50.1421 42.1421C53.8929 38.3914 56 33.3043 56 28C56 22.6957 53.8929 17.6086 50.1421 13.8579C46.3914 10.1071 41.3043 8 36 8C30.6957 8 25.6086 10.1071 21.8579 13.8579C18.1071 17.6086 16 22.6957 16 28C16 33.3043 18.1071 38.3914 21.8579 42.1421C25.6086 45.8929 30.6957 48 36 48Z" fill="#FFCC33"/>
</svg>
