<svg width="32" height="32" viewBox="0 0 32 32" fill="none" xmlns="http://www.w3.org/2000/svg">
<g clip-path="url(#clip0_652_246)">
<path d="M0 16C0 7.16344 7.16344 0 16 0C24.8366 0 32 7.16344 32 16C32 24.8366 24.8366 32 16 32C7.16344 32 0 24.8366 0 16Z" fill="#475993"/>
<path d="M17.6686 25.4077V16.7028H20.0715L20.39 13.7031H17.6686L17.6727 12.2017C17.6727 11.4193 17.747 11.0001 18.8707 11.0001H20.3729V8H17.9697C15.083 8 14.0669 9.4552 14.0669 11.9024V13.7034H12.2676V16.7031H14.0669V25.4077H17.6686Z" fill="white"/>
</g>
<defs>
<clipPath id="clip0_652_246">
<rect width="32" height="32" fill="white"/>
</clipPath>
</defs>
</svg>
