<svg width="32" height="32" viewBox="0 0 32 32" fill="none" xmlns="http://www.w3.org/2000/svg">
<path d="M0 16C0 7.16344 7.16344 0 16 0C24.8366 0 32 7.16344 32 16C32 24.8366 24.8366 32 16 32C7.16344 32 0 24.8366 0 16Z" fill="#5181B8"/>
<path d="M16.8371 21.2507C16.8371 21.2507 17.1451 21.2171 17.3029 21.0508C17.4473 20.8984 17.4423 20.6108 17.4423 20.6108C17.4423 20.6108 17.4231 19.2678 18.0583 19.0696C18.6843 18.8745 19.4882 20.3683 20.3413 20.9426C20.9857 21.3769 21.4748 21.2819 21.4748 21.2819L23.7545 21.2507C23.7545 21.2507 24.9465 21.1786 24.3814 20.2585C24.3346 20.1831 24.0517 19.5776 22.6869 18.3338C21.257 17.0318 21.449 17.2424 23.1702 14.9899C24.2186 13.6183 24.6376 12.7809 24.5066 12.4228C24.3822 12.0803 23.6109 12.1713 23.6109 12.1713L21.045 12.1869C21.045 12.1869 20.8546 12.1615 20.7136 12.2442C20.5758 12.3253 20.4865 12.5146 20.4865 12.5146C20.4865 12.5146 20.0808 13.5757 19.5391 14.4786C18.3964 16.3828 17.9398 16.4836 17.7528 16.3656C17.3179 16.0895 17.4264 15.2579 17.4264 14.6671C17.4264 12.821 17.7119 12.0517 16.8713 11.8526C16.5925 11.7862 16.3872 11.7428 15.6735 11.7354C14.7578 11.7264 13.9831 11.7387 13.5441 11.9492C13.2519 12.0894 13.0265 12.4024 13.1643 12.4204C13.3337 12.4425 13.7177 12.522 13.9214 12.794C14.1843 13.1455 14.1751 13.9338 14.1751 13.9338C14.1751 13.9338 14.3262 16.1067 13.822 16.3763C13.4764 16.5615 13.0023 16.1837 11.9831 14.4557C11.4614 13.5708 11.0674 12.5924 11.0674 12.5924C11.0674 12.5924 10.9915 12.4097 10.8554 12.3114C10.6909 12.1926 10.4614 12.1557 10.4614 12.1557L8.02318 12.1713C8.02318 12.1713 7.65673 12.1811 7.52234 12.3376C7.40297 12.4761 7.51316 12.7637 7.51316 12.7637C7.51316 12.7637 9.42219 17.1481 11.5841 19.358C13.5666 21.3835 15.817 21.2507 15.817 21.2507H16.8371Z" fill="white"/>
<g clip-path="url(#clip0_652_227)">
<path d="M16 32C24.8366 32 32 24.8366 32 16C32 7.16344 24.8366 0 16 0C7.16344 0 0 7.16344 0 16C0 24.8366 7.16344 32 16 32Z" fill="#25D366"/>
<path d="M16.5277 24.9013H16.5237C14.9314 24.9007 13.3668 24.5012 11.9772 23.7432L6.93359 25.0662L8.28333 20.1362C7.45074 18.6933 7.01264 17.0566 7.01336 15.3798C7.01544 10.1341 11.2835 5.86621 16.5276 5.86621C19.0727 5.8673 21.4615 6.85812 23.2578 8.65648C25.054 10.4548 26.0427 12.8451 26.0417 15.3873C26.0396 20.6318 21.7733 24.8991 16.5277 24.9013ZM12.2109 22.0208L12.4996 22.1922C13.7137 22.9127 15.1055 23.2939 16.5245 23.2945H16.5277C20.8862 23.2945 24.4336 19.747 24.4353 15.3867C24.4361 13.2737 23.6144 11.287 22.1214 9.7922C20.6284 8.29747 18.6429 7.47389 16.5308 7.47316C12.1689 7.47316 8.62144 11.0203 8.61971 15.3803C8.6191 16.8745 9.03717 18.3297 9.82875 19.5887L10.0168 19.8879L9.21791 22.806L12.2109 22.0208ZM21.3208 17.6497C21.2614 17.5505 21.1029 17.491 20.8652 17.372C20.6275 17.253 19.4587 16.678 19.2408 16.5986C19.0229 16.5193 18.8644 16.4796 18.7059 16.7175C18.5475 16.9555 18.0919 17.491 17.9532 17.6497C17.8145 17.8083 17.6758 17.8282 17.4382 17.7092C17.2005 17.5902 16.4345 17.3392 15.5264 16.5292C14.8197 15.8989 14.3426 15.1204 14.204 14.8824C14.0653 14.6444 14.1892 14.5158 14.3082 14.3973C14.4151 14.2907 14.5459 14.1195 14.6648 13.9808C14.7836 13.842 14.8233 13.7428 14.9025 13.5842C14.9817 13.4255 14.9421 13.2867 14.8827 13.1677C14.8233 13.0487 14.3478 11.8786 14.1497 11.4026C13.9568 10.939 13.7608 11.0018 13.6149 10.9945C13.4764 10.9876 13.3177 10.9861 13.1592 10.9861C13.0008 10.9861 12.7432 11.0456 12.5253 11.2836C12.3074 11.5216 11.6933 12.0967 11.6933 13.2668C11.6933 14.4369 12.5451 15.5673 12.664 15.726C12.7828 15.8847 14.3403 18.2858 16.725 19.3155C17.2922 19.5605 17.735 19.7067 18.0803 19.8163C18.6497 19.9973 19.168 19.9717 19.5775 19.9105C20.0343 19.8422 20.984 19.3354 21.1822 18.7802C21.3802 18.2248 21.3802 17.7488 21.3208 17.6497Z" fill="#FDFDFD"/>
</g>
<path d="M0 16C0 7.16344 7.16344 0 16 0C24.8366 0 32 7.16344 32 16C32 24.8366 24.8366 32 16 32C7.16344 32 0 24.8366 0 16Z" fill="#5181B8"/>
<path d="M16.8371 21.2507C16.8371 21.2507 17.1451 21.2171 17.3029 21.0508C17.4473 20.8984 17.4423 20.6108 17.4423 20.6108C17.4423 20.6108 17.4231 19.2678 18.0583 19.0696C18.6843 18.8745 19.4882 20.3683 20.3413 20.9426C20.9857 21.3769 21.4748 21.2819 21.4748 21.2819L23.7545 21.2507C23.7545 21.2507 24.9465 21.1786 24.3814 20.2585C24.3346 20.1831 24.0517 19.5776 22.6869 18.3338C21.257 17.0318 21.449 17.2424 23.1702 14.9899C24.2186 13.6183 24.6376 12.7809 24.5066 12.4228C24.3822 12.0803 23.6109 12.1713 23.6109 12.1713L21.045 12.1869C21.045 12.1869 20.8546 12.1615 20.7136 12.2442C20.5758 12.3253 20.4865 12.5146 20.4865 12.5146C20.4865 12.5146 20.0808 13.5757 19.5391 14.4786C18.3964 16.3828 17.9398 16.4836 17.7528 16.3656C17.3179 16.0895 17.4264 15.2579 17.4264 14.6671C17.4264 12.821 17.7119 12.0517 16.8713 11.8526C16.5925 11.7862 16.3872 11.7428 15.6735 11.7354C14.7578 11.7264 13.9831 11.7387 13.5441 11.9492C13.2519 12.0894 13.0265 12.4024 13.1643 12.4204C13.3337 12.4425 13.7177 12.522 13.9214 12.794C14.1843 13.1455 14.1751 13.9338 14.1751 13.9338C14.1751 13.9338 14.3262 16.1067 13.822 16.3763C13.4764 16.5615 13.0023 16.1837 11.9831 14.4557C11.4614 13.5708 11.0674 12.5924 11.0674 12.5924C11.0674 12.5924 10.9915 12.4097 10.8554 12.3114C10.6909 12.1926 10.4614 12.1557 10.4614 12.1557L8.02318 12.1713C8.02318 12.1713 7.65673 12.1811 7.52234 12.3376C7.40297 12.4761 7.51316 12.7637 7.51316 12.7637C7.51316 12.7637 9.42219 17.1481 11.5841 19.358C13.5666 21.3835 15.817 21.2507 15.817 21.2507H16.8371Z" fill="white"/>
<defs>
<clipPath id="clip0_652_227">
<rect width="32" height="32" fill="white"/>
</clipPath>
</defs>
</svg>
