<svg width="65" height="66" viewBox="0 0 65 66" fill="none" xmlns="http://www.w3.org/2000/svg">
<mask id="mask0_123_666" style="mask-type:alpha" maskUnits="userSpaceOnUse" x="0" y="0" width="65" height="66">
<rect y="0.0490723" width="65" height="65" fill="#D9D9D9"/>
</mask>
<g mask="url(#mask0_123_666)">
<path d="M33 57.5592C31.8345 57.5592 29.9414 57.0964 29 56.5013C28.0586 55.9063 27.5379 55.3853 27 54.3857C25.5207 54.3857 24.0534 53.3887 23 52.2701C21.9466 51.1514 22 49.6096 22 48.0388V38.5184C19.3552 36.6619 16.5914 34.1601 15 31.1136C13.4086 28.0671 13 25.1634 13 21.5932C13 15.8334 15.2121 10.8061 19 6.7837C22.7879 2.76133 27.5759 0.436768 33 0.436768C38.4241 0.436768 42.2121 2.76133 46 6.7837C49.7879 10.8061 52 15.8334 52 21.5932C52 25.2586 51.5914 28.1147 50 31.1136C48.4086 34.1125 45.6448 36.6619 43 38.5184V48.0388C43 49.6096 43.0534 51.1514 42 52.2701C40.9466 53.3887 39.4793 54.3857 38 54.3857C37.4621 55.3853 36.9414 55.9063 36 56.5013C35.0586 57.0964 34.1655 57.5592 33 57.5592ZM27 48.0388H38V45.9231H27V48.0388ZM27 42.7497H38V40.634H27V42.7497ZM27 34.2871H30V26.8823L25 20.5354L27 17.3619L33 22.651L38 17.3619L40 20.5354L35 26.8823V34.2871H38C40.4207 33.0494 42.4759 31.4019 44 28.998C45.5241 26.5941 47 24.5921 47 21.5932C47 17.4042 45.7345 13.9187 43 11.015C40.2655 8.11127 36.9448 5.72588 33 5.72588C29.0552 5.72588 24.7345 8.11127 22 11.015C19.2655 13.9187 18 17.4042 18 21.5932C18 24.5921 19.4759 26.5941 21 28.998C22.5241 31.4019 24.5793 33.0494 27 34.2871Z" fill="#FFCC33"/>
</g>
</svg>
