<svg width="32" height="32" viewBox="0 0 32 32" fill="none" xmlns="http://www.w3.org/2000/svg">
<g clip-path="url(#clip0_652_208)">
<path d="M25.4114 6.58838H6.58789V26.3531H25.4114V6.58838Z" fill="white"/>
<path fill-rule="evenodd" clip-rule="evenodd" d="M0.941465 15.958C0.964467 7.64135 7.72514 0.917969 16.0419 0.940977C24.3586 0.963979 31.082 7.72466 31.059 16.0414C31.036 24.3581 24.2753 31.0815 15.9585 31.0585C7.64184 31.0355 0.918458 24.2748 0.941465 15.958ZM16.0232 7.9684C13.842 7.96237 13.5682 7.97114 12.7115 8.00776C11.8563 8.04454 11.2723 8.1783 10.7612 8.3755C10.2323 8.57917 9.78348 8.85235 9.33581 9.29768C8.88783 9.74289 8.61219 10.1902 8.40492 10.7178C8.2044 11.228 8.06724 11.8114 8.0264 12.666C7.98571 13.5225 7.97492 13.7964 7.96889 15.9776C7.96286 18.1588 7.97181 18.4317 8.00825 19.2885C8.0452 20.1436 8.17895 20.7276 8.37599 21.2388C8.57983 21.7676 8.853 22.2165 9.29834 22.6641C9.74339 23.1121 10.1906 23.3884 10.7181 23.595C11.2285 23.795 11.8119 23.9321 12.6666 23.9736C13.5232 24.015 13.7968 24.0252 15.9777 24.0313C18.1591 24.0373 18.432 24.0285 19.2888 23.9919C20.1439 23.9551 20.7286 23.8213 21.2401 23.6241C21.7688 23.4204 22.217 23.1467 22.6644 22.7011C23.1124 22.2559 23.3882 21.8086 23.5953 21.2811C23.7942 20.7708 23.9313 20.1874 23.9739 19.3329C24.0147 18.4763 24.0255 18.2032 24.0316 16.022C24.0376 13.8409 24.0284 13.5671 23.9922 12.7103C23.9544 11.8552 23.8205 11.2712 23.6244 10.7599C23.4202 10.2312 23.147 9.78232 22.7014 9.33465C22.256 8.88667 21.8099 8.61103 21.2817 8.4046C20.7703 8.20457 20.1867 8.06759 19.3318 8.02607C18.4753 7.98472 18.2026 7.97443 16.0207 7.96839L16.0232 7.9684ZM20.3026 10.7612C19.7706 10.7598 19.3377 11.1898 19.3362 11.722C19.3347 12.2541 19.7653 12.687 20.2974 12.6884C20.8294 12.6899 21.2623 12.2595 21.2638 11.7274C21.2652 11.1953 20.8347 10.7627 20.3026 10.7612ZM16.0123 11.8754C13.7346 11.8692 11.8829 13.7108 11.8766 15.9885C11.8703 18.2663 13.7119 20.1173 15.9896 20.1236C18.2674 20.1299 20.1185 18.2891 20.1248 16.0113C20.1311 13.7337 18.29 11.8817 16.0123 11.8754Z" fill="url(#paint0_linear_652_208)"/>
<path d="M16.0014 13.3228C17.4799 13.3228 18.6786 14.5213 18.6786 15.9999C18.6786 17.4784 17.4799 18.6771 16.0014 18.6771C14.5228 18.6771 13.3242 17.4784 13.3242 15.9999C13.3242 14.5213 14.5228 13.3228 16.0014 13.3228Z" fill="white"/>
</g>
<defs>
<linearGradient id="paint0_linear_652_208" x1="16.0419" y1="0.940977" x2="15.9585" y2="31.0585" gradientUnits="userSpaceOnUse">
<stop stop-color="#7523BF"/>
<stop offset="0.369792" stop-color="#C42A66"/>
<stop offset="1" stop-color="#DD903F"/>
</linearGradient>
<clipPath id="clip0_652_208">
<rect width="32" height="32" fill="white"/>
</clipPath>
</defs>
</svg>
