<svg width="193" height="193" viewBox="0 0 193 193" fill="none" xmlns="http://www.w3.org/2000/svg">
<g clip-path="url(#clip0_122_567)">
<path d="M193 75.7526C193.004 73.1325 192.315 70.558 191.001 68.2909C189.687 66.0239 187.797 64.1451 185.522 62.8457L104.22 14.5957C101.877 13.2287 99.2131 12.5083 96.5003 12.5083C93.7876 12.5083 91.1235 13.2287 88.7803 14.5957L7.35846 62.8457C5.10846 64.1808 3.24457 66.0783 1.94997 68.3518C0.655364 70.6254 -0.0253906 73.1966 -0.0253906 75.8129C-0.0253906 78.4292 0.655364 81.0004 1.94997 83.274C3.24457 85.5475 5.10846 87.445 7.35846 88.7801L30.5185 102.29V136.186C30.5324 138.835 31.2277 141.436 32.5374 143.738C33.8472 146.041 35.7274 147.968 37.9972 149.334L89.2628 178.887C91.5518 180.154 94.1252 180.819 96.7416 180.819C99.3579 180.819 101.931 180.154 104.22 178.887L155.486 149.334C157.756 147.968 159.636 146.041 160.946 143.738C162.255 141.436 162.951 138.835 162.965 136.186V101.928L177.922 93.1226V125.933H193V75.7526ZM148.007 136.065L96.5003 165.739L45.5966 136.186V111.216L88.7803 136.909C91.1315 138.253 93.7925 138.96 96.5003 138.96C99.2082 138.96 101.869 138.253 104.22 136.909L147.887 110.854L148.007 136.065ZM96.5003 123.882L15.0785 75.632L96.5003 27.2613L177.922 75.5113L96.5003 123.882Z" fill="#FFCC33"/>
</g>
<defs>
<clipPath id="clip0_122_567">
<rect width="193" height="193" fill="white"/>
</clipPath>
</defs>
</svg>
