<svg width="193" height="193" viewBox="0 0 193 193" fill="none" xmlns="http://www.w3.org/2000/svg">
<mask id="mask0_132_798" style="mask-type:alpha" maskUnits="userSpaceOnUse" x="0" y="0" width="193" height="193">
<rect width="193" height="193" fill="#D9D9D9"/>
</mask>
<g mask="url(#mask0_132_798)">
<path d="M96.4994 72.3749L68.3535 44.2291L96.4994 16.0833L124.645 44.2291L96.4994 72.3749ZM8.04102 160.833V128.667C8.04102 124.11 9.61584 120.29 12.7655 117.207C15.9151 114.125 19.7014 112.583 24.1243 112.583H50.4608C53.1414 112.583 55.6879 113.253 58.1004 114.594C60.5129 115.934 62.4563 117.743 63.9306 120.022C67.8174 125.249 72.6089 129.337 78.3051 132.285C84.0013 135.234 90.066 136.708 96.4994 136.708C103.067 136.708 109.198 135.234 114.895 132.285C120.591 129.337 125.315 125.249 129.068 120.022C130.81 117.743 132.854 115.934 135.2 114.594C137.545 113.253 139.991 112.583 142.538 112.583H168.874C173.431 112.583 177.251 114.125 180.334 117.207C183.416 120.29 184.958 124.11 184.958 128.667V160.833H128.666V142.538C123.975 145.889 118.916 148.436 113.487 150.178C108.059 151.92 102.397 152.792 96.4994 152.792C90.7362 152.792 85.107 151.887 79.6119 150.078C74.1167 148.268 69.0237 145.688 64.3327 142.337V160.833H8.04102ZM32.166 104.542C25.4646 104.542 19.7684 102.196 15.0775 97.5051C10.3865 92.8142 8.04102 87.118 8.04102 80.4166C8.04102 73.5812 10.3865 67.8515 15.0775 63.2275C19.7684 58.6036 25.4646 56.2916 32.166 56.2916C39.0014 56.2916 44.7311 58.6036 49.3551 63.2275C53.979 67.8515 56.291 73.5812 56.291 80.4166C56.291 87.118 53.979 92.8142 49.3551 97.5051C44.7311 102.196 39.0014 104.542 32.166 104.542ZM160.833 104.542C154.131 104.542 148.435 102.196 143.744 97.5051C139.053 92.8142 136.708 87.118 136.708 80.4166C136.708 73.5812 139.053 67.8515 143.744 63.2275C148.435 58.6036 154.131 56.2916 160.833 56.2916C167.668 56.2916 173.398 58.6036 178.022 63.2275C182.646 67.8515 184.958 73.5812 184.958 80.4166C184.958 87.118 182.646 92.8142 178.022 97.5051C173.398 102.196 167.668 104.542 160.833 104.542Z" fill="#FFCC33"/>
</g>
</svg>
