<svg width="36" height="36" viewBox="0 0 36 36" fill="none" xmlns="http://www.w3.org/2000/svg">
<mask id="mask0_151_74" style="mask-type:alpha" maskUnits="userSpaceOnUse" x="0" y="0" width="36" height="36">
<rect width="36" height="36" fill="#D9D9D9"/>
</mask>
<g mask="url(#mask0_151_74)">
<path d="M15 30H21V28.5H15V30ZM10.5 34.5C9.675 34.5 8.96875 34.2062 8.38125 33.6188C7.79375 33.0312 7.5 32.325 7.5 31.5V4.5C7.5 3.675 7.79375 2.96875 8.38125 2.38125C8.96875 1.79375 9.675 1.5 10.5 1.5H25.5C26.325 1.5 27.0312 1.79375 27.6188 2.38125C28.2063 2.96875 28.5 3.675 28.5 4.5V31.5C28.5 32.325 28.2063 33.0312 27.6188 33.6188C27.0312 34.2062 26.325 34.5 25.5 34.5H10.5ZM10.5 27V31.5H25.5V27H10.5ZM10.5 24H25.5V9H10.5V24ZM10.5 6H25.5V4.5H10.5V6Z" fill="#8391A1"/>
</g>
</svg>
