<svg width="110" height="110" viewBox="0 0 110 110" fill="none" xmlns="http://www.w3.org/2000/svg">
<mask id="mask0_317_651" style="mask-type:alpha" maskUnits="userSpaceOnUse" x="0" y="0" width="110" height="110">
<rect width="110" height="110" fill="#D9D9D9"/>
</mask>
<g mask="url(#mask0_317_651)">
<path d="M27.5007 100.833C24.9798 100.833 22.8218 99.9358 21.0267 98.1407C19.2316 96.3456 18.334 94.1876 18.334 91.6667V36.6667C18.334 34.1459 19.2316 31.9879 21.0267 30.1928C22.8218 28.3976 24.9798 27.5001 27.5007 27.5001H36.6673C36.6673 22.4584 38.4625 18.1424 42.0527 14.5522C45.643 10.9619 49.959 9.16675 55.0007 9.16675C60.0423 9.16675 64.3583 10.9619 67.9486 14.5522C71.5388 18.1424 73.334 22.4584 73.334 27.5001H82.5007C85.0215 27.5001 87.1795 28.3976 88.9746 30.1928C90.7698 31.9879 91.6673 34.1459 91.6673 36.6667V91.6667C91.6673 94.1876 90.7698 96.3456 88.9746 98.1407C87.1795 99.9358 85.0215 100.833 82.5007 100.833H27.5007ZM27.5007 91.6667H82.5007V36.6667H73.334V45.8334C73.334 47.132 72.8948 48.2206 72.0163 49.099C71.1378 49.9775 70.0493 50.4167 68.7507 50.4167C67.452 50.4167 66.3635 49.9775 65.485 49.099C64.6066 48.2206 64.1673 47.132 64.1673 45.8334V36.6667H45.834V45.8334C45.834 47.132 45.3947 48.2206 44.5163 49.099C43.6378 49.9775 42.5493 50.4167 41.2507 50.4167C39.952 50.4167 38.8635 49.9775 37.985 49.099C37.1066 48.2206 36.6673 47.132 36.6673 45.8334V36.6667H27.5007V91.6667ZM45.834 27.5001H64.1673C64.1673 24.9792 63.2698 22.8213 61.4746 21.0261C59.6795 19.231 57.5215 18.3334 55.0007 18.3334C52.4798 18.3334 50.3218 19.231 48.5267 21.0261C46.7316 22.8213 45.834 24.9792 45.834 27.5001Z" fill="#2F66F6"/>
</g>
</svg>
