<svg width="32" height="32" viewBox="0 0 32 32" fill="none" xmlns="http://www.w3.org/2000/svg">
<g clip-path="url(#clip0_652_212)">
<path d="M25.4114 6.58838H6.58789V26.3531H25.4114V6.58838Z" fill="white"/>
<path fill-rule="evenodd" clip-rule="evenodd" d="M0.941465 15.958C0.964467 7.64135 7.72514 0.917969 16.0419 0.940977C24.3586 0.963979 31.082 7.72466 31.059 16.0414C31.036 24.3581 24.2753 31.0815 15.9585 31.0585C7.64184 31.0355 0.918458 24.2748 0.941465 15.958ZM16.0232 7.9684C13.842 7.96237 13.5682 7.97114 12.7115 8.00776C11.8563 8.04454 11.2723 8.1783 10.7612 8.3755C10.2323 8.57917 9.78348 8.85235 9.33581 9.29768C8.88783 9.74289 8.61219 10.1902 8.40492 10.7178C8.2044 11.228 8.06724 11.8114 8.0264 12.666C7.98571 13.5225 7.97492 13.7964 7.96889 15.9776C7.96286 18.1588 7.97181 18.4317 8.00825 19.2885C8.0452 20.1436 8.17895 20.7276 8.37599 21.2388C8.57983 21.7676 8.853 22.2165 9.29834 22.6641C9.74339 23.1121 10.1906 23.3884 10.7181 23.595C11.2285 23.795 11.8119 23.9321 12.6666 23.9736C13.5232 24.015 13.7968 24.0252 15.9777 24.0313C18.1591 24.0373 18.432 24.0285 19.2888 23.9919C20.1439 23.9551 20.7286 23.8213 21.2401 23.6241C21.7688 23.4204 22.217 23.1467 22.6644 22.7011C23.1124 22.2559 23.3882 21.8086 23.5953 21.2811C23.7942 20.7708 23.9313 20.1874 23.9739 19.3329C24.0147 18.4763 24.0255 18.2032 24.0316 16.022C24.0376 13.8409 24.0284 13.5671 23.9922 12.7103C23.9544 11.8552 23.8205 11.2712 23.6244 10.7599C23.4202 10.2312 23.147 9.78232 22.7014 9.33465C22.256 8.88667 21.8099 8.61103 21.2817 8.4046C20.7703 8.20457 20.1867 8.06759 19.3318 8.02607C18.4753 7.98472 18.2026 7.97443 16.0207 7.96839L16.0232 7.9684ZM20.3026 10.7612C19.7706 10.7598 19.3377 11.1898 19.3362 11.722C19.3347 12.2541 19.7653 12.687 20.2974 12.6884C20.8294 12.6899 21.2623 12.2595 21.2638 11.7274C21.2652 11.1953 20.8347 10.7627 20.3026 10.7612ZM16.0123 11.8754C13.7346 11.8692 11.8829 13.7108 11.8766 15.9885C11.8703 18.2663 13.7119 20.1173 15.9896 20.1236C18.2674 20.1299 20.1185 18.2891 20.1248 16.0113C20.1311 13.7337 18.29 11.8817 16.0123 11.8754Z" fill="url(#paint0_linear_652_212)"/>
<path d="M16.0014 13.3228C17.4799 13.3228 18.6786 14.5213 18.6786 15.9999C18.6786 17.4784 17.4799 18.6771 16.0014 18.6771C14.5228 18.6771 13.3242 17.4784 13.3242 15.9999C13.3242 14.5213 14.5228 13.3228 16.0014 13.3228Z" fill="white"/>
<g clip-path="url(#clip1_652_212)">
<path d="M16 32C24.8366 32 32 24.8366 32 16C32 7.16344 24.8366 0 16 0C7.16344 0 0 7.16344 0 16C0 24.8366 7.16344 32 16 32Z" fill="white"/>
<path d="M14.5517 14.4404V13.704C14.2946 13.6635 14.0349 13.6414 13.7746 13.6377C11.2544 13.6323 9.02312 15.256 8.2664 17.6459C7.5095 20.0359 8.40286 22.6376 10.4716 24.0686C8.922 22.4197 8.49166 20.0195 9.37295 17.9398C10.2542 15.8602 12.2824 14.4896 14.5517 14.4404Z" fill="#25F4EE"/>
<path d="M14.6735 22.6897C16.0693 22.6878 17.2166 21.5908 17.2778 20.1997V7.78595H19.5512C19.5048 7.52659 19.4827 7.26347 19.4851 7H16.3756V19.4017C16.3239 20.7999 15.1739 21.9074 13.7713 21.9097C13.3523 21.9061 12.9401 21.8033 12.5684 21.6097C12.8096 21.9426 13.1259 22.214 13.4917 22.4016C13.8575 22.5893 14.2624 22.688 14.6735 22.6897ZM23.8616 12V11.3192C23.034 11.3197 22.2245 11.0767 21.534 10.6207C22.1399 11.3204 22.9568 11.8045 23.8616 12Z" fill="#25F4EE"/>
<path d="M21.3622 10.5345C20.7062 9.77165 20.3447 8.79105 20.3449 7.77588H19.5518C19.7588 8.91028 20.4135 9.90778 21.3622 10.5345ZM13.7221 16.7313C12.5143 16.7374 11.466 17.5587 11.1791 18.7232C10.8922 19.8878 11.4407 21.0966 12.5092 21.6552C12.2254 21.2669 12.0553 20.8073 12.0179 20.3278C11.9805 19.8484 12.0773 19.3679 12.2975 18.9404C12.7466 18.0679 13.6507 17.5191 14.6377 17.5198C14.9009 17.5231 15.1622 17.5636 15.4139 17.6402V14.474C15.1569 14.4358 14.8975 14.4157 14.6377 14.4138H14.4982V16.8216C14.2452 16.7543 13.9838 16.7239 13.7221 16.7313Z" fill="#FE2C55"/>
<path d="M23.8157 12.0859V14.4869C22.2554 14.484 20.7357 13.9947 19.4717 13.0883V19.3971C19.465 22.5452 16.8874 25.0936 13.71 25.0936C12.5314 25.0961 11.3806 24.7356 10.4141 24.0611C12.0234 25.7761 14.5279 26.3405 16.7276 25.4842C18.9272 24.6278 20.3739 22.525 20.3744 20.1835V13.8927C21.6427 14.793 23.1643 15.276 24.7245 15.2733V12.1819C24.419 12.181 24.1145 12.1488 23.8157 12.0859Z" fill="#FE2C55"/>
<path d="M19.508 19.3732V13.0282C20.7782 13.9349 22.3007 14.4206 23.8614 14.4167V12.0017C22.9397 11.8083 22.1058 11.321 21.4846 10.6132C20.4838 9.96872 19.7931 8.9426 19.5747 7.77588H17.2828V20.2727C17.2371 21.3876 16.4871 22.3513 15.4142 22.6738C14.3414 22.9962 13.1811 22.6069 12.5233 21.7035C11.4549 21.1433 10.9065 19.9309 11.1934 18.7629C11.4801 17.595 12.5284 16.7713 13.7359 16.7651C13.9991 16.7674 14.2606 16.8082 14.512 16.8859V14.4711C12.2332 14.5095 10.1925 15.8848 9.30988 17.9772C8.42738 20.0694 8.8697 22.4833 10.4376 24.1304C11.4131 24.786 12.5668 25.1254 13.742 25.1023C16.9218 25.1023 19.5014 22.5392 19.508 19.3732Z" fill="black"/>
</g>
</g>
<defs>
<linearGradient id="paint0_linear_652_212" x1="16.0419" y1="0.940977" x2="15.9585" y2="31.0585" gradientUnits="userSpaceOnUse">
<stop stop-color="#7523BF"/>
<stop offset="0.369792" stop-color="#C42A66"/>
<stop offset="1" stop-color="#DD903F"/>
</linearGradient>
<clipPath id="clip0_652_212">
<rect width="32" height="32" fill="white"/>
</clipPath>
<clipPath id="clip1_652_212">
<rect width="32" height="32" fill="white"/>
</clipPath>
</defs>
</svg>
