<svg width="24" height="24" viewBox="0 0 24 24" fill="none" xmlns="http://www.w3.org/2000/svg">
<g clip-path="url(#clip0_151_98)">
<path d="M17.7847 8.64166C19.5354 9.74607 21.6802 10.3959 23.9967 10.3959V6.46237C23.5582 6.46246 23.121 6.42207 22.6921 6.34188V9.43813C20.3758 9.43813 18.2313 8.78839 16.4802 7.68406V15.7113C16.4802 19.727 12.7912 22.9821 8.24104 22.9821C6.54325 22.9821 4.96516 22.5291 3.6543 21.7523C5.15047 23.1023 7.23697 23.9398 9.54524 23.9398C14.0958 23.9398 17.7849 20.6847 17.7849 16.6688V8.64166H17.7847ZM19.3941 4.67322C18.4993 3.81062 17.9118 2.69586 17.7847 1.46342V0.95752H16.5484C16.8596 2.52389 17.9211 3.8621 19.3941 4.67322ZM6.53228 18.6708C6.03239 18.0925 5.76217 17.3849 5.76339 16.6573C5.76339 14.8207 7.45068 13.3316 9.5324 13.3316C9.92029 13.3314 10.3059 13.384 10.6757 13.4874V9.46593C10.2436 9.41371 9.80751 9.39145 9.37165 9.39964V12.5297C9.00171 12.4262 8.6159 12.3737 8.22782 12.374C6.14619 12.374 4.459 13.863 4.459 15.6998C4.459 16.9986 5.30231 18.1231 6.53228 18.6708Z" fill="#FF004F"/>
<path d="M16.4807 7.68397C18.232 8.78831 20.3763 9.43804 22.6926 9.43804V6.34179C21.3997 6.09873 20.2551 5.50254 19.3945 4.67322C17.9215 3.86202 16.8602 2.52381 16.549 0.95752H13.3018V16.6687C13.2944 18.5003 11.61 19.9833 9.53276 19.9833C8.30879 19.9833 7.2213 19.4685 6.53264 18.6708C5.30286 18.1231 4.45945 16.9985 4.45945 15.6999C4.45945 13.8632 6.14665 12.3741 8.22828 12.3741C8.62711 12.3741 9.01151 12.4289 9.3721 12.5298V9.39973C4.90178 9.48124 1.30664 12.7045 1.30664 16.6687C1.30664 18.6477 2.20189 20.4416 3.65494 21.7524C4.9658 22.5291 6.5438 22.9822 8.24168 22.9822C12.792 22.9822 16.4808 19.7269 16.4808 15.7113L16.4807 7.68397Z" fill="black"/>
<path d="M22.6924 6.34179V5.50477C21.5265 5.50633 20.3835 5.21819 19.3943 4.6733C20.27 5.51927 21.423 6.10265 22.6924 6.34196M16.5487 0.957517C16.519 0.807857 16.4963 0.657195 16.4804 0.505903V0H11.9968V15.7113C11.9897 17.5428 10.3053 19.0258 8.22798 19.0258C7.63908 19.0266 7.05823 18.905 6.53235 18.671C7.221 19.4686 8.3085 19.9833 9.53246 19.9833C11.6096 19.9833 13.2942 18.5004 13.3015 16.6688V0.9576L16.5487 0.957517ZM9.37209 9.39972V8.5085C8.99743 8.46328 8.61971 8.44066 8.24157 8.4408C3.69082 8.4408 0.00195312 11.696 0.00195312 15.7113C0.00195312 18.2287 1.45172 20.4473 3.65483 21.7524C2.20178 20.4416 1.30653 18.6476 1.30653 16.6687C1.30653 12.7046 4.90158 9.48124 9.37209 9.39972Z" fill="#00F2EA"/>
</g>
<defs>
<clipPath id="clip0_151_98">
<rect width="24" height="24" fill="white"/>
</clipPath>
</defs>
</svg>
