<svg width="65" height="66" viewBox="0 0 65 66" fill="none" xmlns="http://www.w3.org/2000/svg">
<mask id="mask0_125_692" style="mask-type:alpha" maskUnits="userSpaceOnUse" x="0" y="0" width="65" height="66">
<rect y="0.327637" width="65" height="65" fill="#D9D9D9"/>
</mask>
<g mask="url(#mask0_125_692)">
<path d="M32 61.0691L28 57.8956C23.455 53.7864 19.97 50.2977 17 47.3174C14.03 44.337 11.755 41.2256 10 38.8548C8.245 36.4841 6.6975 34.4948 6 32.5079C5.3025 30.521 5 28.2382 5 26.161C5 21.9162 6.165 18.4276 9 15.5827C11.835 12.7379 15.77 11.3514 20 11.3514C22.34 11.3514 24.885 11.4158 27 12.4093C29.115 13.4027 30.47 14.8343 32 16.6406C33.53 14.8343 34.885 13.4027 37 12.4093C39.115 11.4158 41.66 11.3514 44 11.3514C48.23 11.3514 52.165 12.7379 55 15.5827C57.835 18.4276 59 21.9162 59 26.161C59 28.2382 58.6975 30.521 58 32.5079C57.3025 34.4948 55.755 36.4841 54 38.8548C52.245 41.2256 49.97 44.337 47 47.3174C44.03 50.2977 40.545 53.7864 36 57.8956L32 61.0691ZM32 53.6643C36.32 49.7808 40.21 46.9211 43 44.1439C45.79 41.3668 47.38 38.7938 49 36.7392C50.62 34.6845 52.37 33.0531 53 31.4501C53.63 29.847 54 27.7414 54 26.161C54 23.4515 52.8 21.6203 51 19.814C49.2 18.0077 46.7 16.6406 44 16.6406C41.885 16.6406 39.8 17.5595 38 18.7562C36.2 19.9529 35.675 21.1361 35 22.9875H29C28.325 21.1361 27.8 19.9529 26 18.7562C24.2 17.5595 22.115 16.6406 20 16.6406C17.3 16.6406 14.8 18.0077 13 19.814C11.2 21.6203 10 23.4515 10 26.161C10 27.7414 10.37 29.847 11 31.4501C11.63 33.0531 13.38 34.6845 15 36.7392C16.62 38.7938 18.21 41.3668 21 44.1439C23.79 46.9211 27.68 49.7808 32 53.6643Z" fill="#FFCC33"/>
</g>
</svg>
