<svg width="193" height="193" viewBox="0 0 193 193" fill="none" xmlns="http://www.w3.org/2000/svg">
<mask id="mask0_132_791" style="mask-type:alpha" maskUnits="userSpaceOnUse" x="0" y="0" width="193" height="193">
<rect width="193" height="193" fill="#D9D9D9"/>
</mask>
<g mask="url(#mask0_132_791)">
<path d="M128.666 104.542L95.2931 71.9728C91.1382 67.952 87.62 63.4956 84.7384 58.6036C81.8568 53.7116 80.416 48.3839 80.416 42.6208C80.416 35.2492 82.9961 28.9834 88.1561 23.8234C93.3162 18.6633 99.582 16.0833 106.954 16.0833C111.242 16.0833 115.263 16.9879 119.016 18.7973C122.769 20.6067 125.985 23.0527 128.666 26.1353C131.347 23.0527 134.563 20.6067 138.316 18.7973C142.069 16.9879 146.09 16.0833 150.379 16.0833C157.75 16.0833 164.016 18.6633 169.176 23.8234C174.336 28.9834 176.916 35.2492 176.916 42.6208C176.916 48.3839 175.509 53.7116 172.694 58.6036C169.88 63.4956 166.395 67.952 162.24 71.9728L128.666 104.542ZM128.666 82.0249L150.58 60.5135C153.126 57.9669 155.472 55.2529 157.616 52.3713C159.76 49.4897 160.833 46.2395 160.833 42.6208C160.833 39.6721 159.827 37.1926 157.817 35.1822C155.807 33.1718 153.327 32.1666 150.379 32.1666C148.502 32.1666 146.726 32.5352 145.051 33.2723C143.376 34.0095 141.935 35.1152 140.729 36.5895L128.666 51.0645L116.604 36.5895C115.397 35.1152 113.956 34.0095 112.281 33.2723C110.606 32.5352 108.83 32.1666 106.954 32.1666C104.005 32.1666 101.525 33.1718 99.515 35.1822C97.5046 37.1926 96.4994 39.6721 96.4994 42.6208C96.4994 46.2395 97.5716 49.4897 99.716 52.3713C101.86 55.2529 104.206 57.9669 106.752 60.5135L128.666 82.0249ZM56.291 148.771L112.181 164.05L160.029 149.173C159.358 147.967 158.387 146.928 157.113 146.057C155.84 145.186 154.399 144.75 152.791 144.75H112.181C108.562 144.75 105.68 144.616 103.536 144.348C101.391 144.08 99.1799 143.544 96.9014 142.74L78.2046 136.507L82.6275 120.826L98.9119 126.254C101.19 126.924 103.871 127.46 106.954 127.862C110.036 128.265 114.593 128.533 120.624 128.667C120.624 127.192 120.189 125.785 119.318 124.445C118.446 123.104 117.408 122.233 116.201 121.831L69.1577 104.542H56.291V148.771ZM8.04102 176.917V88.4583H69.1577C70.0959 88.4583 71.0341 88.5588 71.9723 88.7598C72.9105 88.9609 73.7816 89.1954 74.5858 89.4635L121.831 106.954C126.254 108.562 129.839 111.377 132.586 115.398C135.334 119.419 136.708 123.842 136.708 128.667H152.791C159.492 128.667 165.189 130.878 169.88 135.301C174.571 139.724 176.916 145.554 176.916 152.792V160.833L112.583 180.937L56.291 165.256V176.917H8.04102ZM24.1243 160.833H40.2077V104.542H24.1243V160.833Z" fill="#FFCC33"/>
</g>
</svg>
