<svg width="24" height="24" viewBox="0 0 24 24" fill="none" xmlns="http://www.w3.org/2000/svg">
<g clip-path="url(#clip0_151_106)">
<path d="M17.1303 14.2351C16.8453 14.1001 15.4803 13.4251 15.2253 13.3201C14.9703 13.2151 14.7903 13.1851 14.5953 13.4701C14.4003 13.7551 13.8753 14.3701 13.7103 14.5651C13.5453 14.7601 13.3953 14.7751 13.1103 14.5651C12.2918 14.2365 11.5357 13.7698 10.8753 13.1851C10.2775 12.6222 9.7714 11.9693 9.37534 11.2501C9.21034 10.9801 9.37534 10.8301 9.49534 10.6801C9.61534 10.5301 9.76534 10.3651 9.91534 10.2001C10.025 10.0574 10.1158 9.90106 10.1853 9.73506C10.2225 9.65785 10.2419 9.57326 10.2419 9.48756C10.2419 9.40185 10.2225 9.31726 10.1853 9.24006C10.1853 9.10506 9.55534 7.74006 9.31534 7.18506C9.07534 6.63006 8.86534 6.70506 8.70034 6.70506H8.10034C7.81452 6.7162 7.54479 6.84027 7.35034 7.05006C7.03648 7.34956 6.78786 7.71068 6.62009 8.11076C6.45231 8.51084 6.36899 8.94127 6.37534 9.37506C6.45206 10.44 6.84365 11.4581 7.50034 12.3001C8.70539 14.0902 10.354 15.5373 12.2853 16.5001C12.9453 16.7851 13.4553 16.9501 13.8603 17.0851C14.4291 17.257 15.0302 17.2929 15.6153 17.1901C16.004 17.1112 16.3723 16.9534 16.6974 16.7263C17.0225 16.4992 17.2975 16.2078 17.5053 15.8701C17.6783 15.453 17.7353 14.9969 17.6703 14.5501C17.5953 14.4451 17.4153 14.3701 17.1303 14.2351Z" fill="#E8E8E8"/>
<path d="M19.9348 4.01989C18.8974 2.97272 17.6608 2.14388 16.298 1.58226C14.9352 1.02065 13.4737 0.737628 11.9998 0.749894C10.0472 0.760112 8.1315 1.28244 6.44398 2.26472C4.75646 3.24699 3.35619 4.65483 2.38302 6.34762C1.40986 8.04041 0.89786 9.9589 0.898166 11.9115C0.898472 13.8641 1.41107 15.7824 2.38477 17.4749L0.884766 23.2499L6.79477 21.7499C8.42862 22.639 10.2597 23.1032 12.1198 23.0999H11.9998C14.2166 23.1143 16.3876 22.4682 18.2358 21.2439C20.084 20.0195 21.5256 18.2725 22.3769 16.2255C23.2282 14.1786 23.4505 11.9244 23.0156 9.75061C22.5806 7.57677 21.5081 5.58173 19.9348 4.01989ZM11.9998 21.1799C10.3356 21.1812 8.70236 20.7301 7.27477 19.8749L6.94477 19.6799L3.43477 20.5949L4.36477 17.1749L4.15477 16.8299C2.9568 14.9006 2.50868 12.5988 2.89544 10.361C3.28219 8.12326 4.47691 6.10532 6.25291 4.69007C8.02892 3.27482 10.2626 2.56072 12.5303 2.68327C14.7979 2.80582 16.9416 3.75648 18.5548 5.35489C19.4196 6.21273 20.105 7.23411 20.5711 8.3595C21.0373 9.48489 21.2747 10.6918 21.2698 11.9099C21.2658 14.3672 20.2879 16.7228 18.5503 18.4604C16.8127 20.198 14.4571 21.1759 11.9998 21.1799Z" fill="#E8E8E8"/>
</g>
<defs>
<clipPath id="clip0_151_106">
<rect width="24" height="24" fill="white"/>
</clipPath>
</defs>
</svg>
